<?xml version="1.0" encoding="utf-8"?>
<!-- Generator: Adobe Illustrator 21.0.0, SVG Export Plug-In . SVG Version: 6.00 Build 0)  -->
<svg version="1.1" id="Layer_1" xmlns="http://www.w3.org/2000/svg" xmlns:xlink="http://www.w3.org/1999/xlink" x="0px" y="0px"
	 viewBox="0 0 512 512" style="enable-background:new 0 0 512 512;" xml:space="preserve">
<style type="text/css">
	.st0{fill:#1E9341;}
	.st1{fill:#F5F5F5;}
	.st2{fill:#F01A2C;}
	.st3{fill:#FFD250;}
	.st4{fill:#049E8B;}
	.st5{fill:#0092DB;}
	.st6{fill:#732D37;}
	.st7{fill:#3CA055;}
	.st8{fill:#874150;}
	.st9{fill:#783C46;}
	.st10{fill:#FFE15A;}
	.st11{fill:#FFB478;}
	.st12{fill:#9B4B5A;}
</style>
<g id="Layer_1_1_">
	<rect x="-30" class="st0" width="170.7" height="512"/>
	<rect x="140.8" class="st1" width="230.5" height="512"/>
	<rect x="371.3" class="st2" width="170.7" height="512"/>
</g>
<g id="Layer_2">
	<polygon class="st3" points="276.1,263.7 256,273.7 256,283.9 266,283.9 	"/>
	<g>
		<path class="st4" d="M256,308.9c-2.8,0-5-2.2-5-5v-20.1c0-2.8,2.2-5,5-5s5,2.2,5,5v20.1C261,306.7,258.8,308.9,256,308.9z"/>
		<path class="st4" d="M256,288.9c-19.8,0-38.8-7.7-53.7-21.4c-2-1.8-2.1-5-0.3-7.1c1.8-2,5-2.1,7.1-0.3
			c13.1,12.1,29.7,18.7,46.9,18.7s33.8-6.6,46.9-18.7c2-1.8,5.1-1.7,7.1,0.3c1.8,2,1.7,5.1-0.3,7.1
			C294.8,281.2,275.8,288.9,256,288.9z"/>
	</g>
	<path class="st5" d="M256,308.9c-12.9,0-25.3-3.8-36-10.8l5.5-8.3c18.1,12,42.9,12,61,0l5.5,8.3C281.3,305.1,268.9,308.9,256,308.9
		z"/>
	<polygon class="st6" points="248.1,241.1 237,258.3 235,263.9 263.9,257.2 	"/>
	<path class="st7" d="M225.2,269.5c-13.3,0-29.2-11.2-33.4-36l9.9-1.7c3.6,20.7,16.2,27.7,23.9,27.7c2.4,0,4.8-0.9,5-2.5
		c0.3-2,0.3-2.5-5-4.2c-2.9-0.9-6.1-2.1-8.3-4.6c-9.2-10.6,3.3-21.6,9.2-26.9c1.1-0.9,1.5-1.7,1.3-2.1c-0.3-0.8-2.2-2.1-4.5-2.1
		c-6.3,0-11.2-3.6-12.7-9.4c-1.5-6.1,1.3-12.3,6.6-15l4.6,9c-1.2,0.7-1.7,2.5-1.5,3.7c0.1,0.5,0.4,1.7,2.9,1.7
		c6.2,0,12,3.7,13.9,8.6c0.8,2.1,2,7.7-4.1,13.1c-6.6,5.9-10.6,10.3-8.3,12.8c0.5,0.5,2.6,1.3,4,1.7c4.5,1.6,12.9,4.4,11.7,14.9
		c-0.8,6.6-6.6,11.2-14.7,11.5C225.6,269.5,225.5,269.5,225.2,269.5z"/>
	<path class="st8" d="M266,213.5c0,0,10-20.1-10-30.1c0,0,70.4-10,60.3,80.4l0,0c-6.6-5.3-16.4-14.9-19.9-22.6L266,223.7V213.5z"/>
	<path class="st6" d="M256,233.6l50.3,30.1c0,0,0,0-20.1,10L256,243.6V233.6z"/>
	<path class="st9" d="M235.9,203.5L235.9,203.5c5.5,0,10,4.5,10,10l0,0c-5.9,5.9-7.5,15.2-3.7,22.7l2.2,4.5c0.9,1.8,2.2,3.6,3.7,5.1
		l27.9,27.9v-13.9c0-17.3-4.1-34.3-11.7-49.9l0,0c-5.1-10.2-15.6-16.6-26.9-16.6h-1.5L235.9,203.5L235.9,203.5z"/>
	<path class="st3" d="M235.9,193.3l-10,10v10c0,0,12-6.1,16-8.1c2.8-1.3,2.2-4.5,0.7-6.1C241.2,198.2,235.9,193.3,235.9,193.3z"/>
	<path class="st7" d="M256,329c-47.1,0-85.4-38.3-85.4-85.4h10c0,41.6,33.8,75.4,75.4,75.4s75.4-33.8,75.4-75.4h10
		C341.4,290.7,303.1,329,256,329z"/>
	<g>
		<circle class="st10" cx="181.3" cy="273.4" r="6.9"/>
		<circle class="st10" cx="196.3" cy="297.5" r="6.9"/>
		<circle class="st10" cx="220.8" cy="315.7" r="6.9"/>
		<circle class="st10" cx="331.5" cy="273.4" r="6.9"/>
		<circle class="st10" cx="316.5" cy="297.5" r="6.9"/>
		<circle class="st10" cx="291.9" cy="315.7" r="6.9"/>
	</g>
	<path class="st11" d="M261,314h-10c-5.5,0-10-4.5-10-10l0,0c0-5.5,4.5-10,10-10h10c5.5,0,10,4.5,10,10l0,0
		C271,309.5,266.6,314,261,314z"/>
	<path class="st12" d="M296.4,241.1c3.3,9.9,10.4,18.9,19.9,22.6l0,0c10-90.4-60.3-80.4-60.3-80.4
		C306.3,183.3,296.4,241.1,296.4,241.1z"/>
</g>
</svg>
